<?xml version="1.0" encoding="UTF-8"?>
<svg xmlns="http://www.w3.org/2000/svg" viewBox="0 0 400 400" role="img" aria-label="Plaid Sherpa Moments Anime — AnimemomentsAnimeofficiel">
  <title>Plaid Sherpa Moments Anime — AnimemomentsAnimeofficiel</title>
  <defs>
    <linearGradient id="g1xdu2uz" x1="0" y1="0" x2="1" y2="1">
      <stop offset="0%" stop-color="#facc15"/>
      <stop offset="55%" stop-color="#ec4899"/>
      <stop offset="100%" stop-color="#1e293b"/>
    </linearGradient>
  </defs>
  <rect width="400" height="400" fill="url(#g1xdu2uz)"/>
  <g transform="rotate(-88 200 200)" opacity="0.55">
    <circle cx="200" cy="200" r="60"  fill="none" stroke="#fff" stroke-opacity="0.18" stroke-width="2"/>
    <circle cx="200" cy="200" r="100" fill="none" stroke="#fff" stroke-opacity="0.14" stroke-width="2"/>
    <circle cx="200" cy="200" r="140" fill="none" stroke="#fff" stroke-opacity="0.10" stroke-width="2"/>
  </g>
  <circle cx="309.0" cy="200.0" r="13" fill="#fff" opacity="0.45"/><circle cx="96.8" cy="294.6" r="10" fill="#fff" opacity="0.45"/><circle cx="214.9" cy="29.7" r="7" fill="#fff" opacity="0.45"/><circle cx="256.0" cy="273.0" r="4" fill="#fff" opacity="0.45"/><circle cx="78.9" cy="178.6" r="11" fill="#fff" opacity="0.45"/><circle cx="329.9" cy="117.3" r="8" fill="#fff" opacity="0.45"/><circle cx="152.1" cy="378.7" r="5" fill="#fff" opacity="0.45"/><circle cx="151.1" cy="106.0" r="12" fill="#fff" opacity="0.45"/><circle cx="328.7" cy="246.9" r="9" fill="#fff" opacity="0.45"/><circle cx="44.8" cy="264.3" r="6" fill="#fff" opacity="0.45"/><circle cx="237.6" cy="119.3" r="13" fill="#fff" opacity="0.45"/><circle cx="236.1" cy="314.4" r="10" fill="#fff" opacity="0.45"/><circle cx="69.2" cy="124.5" r="7" fill="#fff" opacity="0.45"/><circle cx="377.7" cy="160.6" r="4" fill="#fff" opacity="0.45"/><circle cx="140.9" cy="284.4" r="11" fill="#fff" opacity="0.45"/><circle cx="182.5" cy="67.1" r="8" fill="#fff" opacity="0.45"/><circle cx="326.4" cy="306.1" r="5" fill="#fff" opacity="0.45"/><circle cx="114.1" cy="203.8" r="12" fill="#fff" opacity="0.45"/>
  <rect x="40" y="60" width="320" height="280" rx="14" fill="#0c0c14" opacity="0.78"/>
  <text x="200" y="200" text-anchor="middle" font-family="serif" font-weight="900" font-size="120" fill="#facc15">D</text>
  <text x="200" y="260" text-anchor="middle" font-family="Orbitron, sans-serif" font-size="14" letter-spacing="4" fill="#fff">DAILY</text>
  <text x="200" y="300" text-anchor="middle" font-family="sans-serif" font-size="13" fill="#fff" opacity="0.9">Plaid Sherpa Moments Anime</text>
  <text x="20" y="385" font-family="Orbitron, sans-serif" font-size="10" letter-spacing="3" fill="#fff" opacity="0.7">AnimemomentsAnimeofficiel · AM-072</text>
</svg>