<?xml version="1.0" encoding="UTF-8"?>
<svg xmlns="http://www.w3.org/2000/svg" viewBox="0 0 400 400" role="img" aria-label="BD Hardcover ree3franc Saga — AnimemomentsAnimeofficiel">
  <title>BD Hardcover ree3franc Saga — AnimemomentsAnimeofficiel</title>
  <defs>
    <linearGradient id="gwr7dso" x1="0" y1="0" x2="1" y2="1">
      <stop offset="0%" stop-color="#ff2e93"/>
      <stop offset="55%" stop-color="#7b2dff"/>
      <stop offset="100%" stop-color="#00e0ff"/>
    </linearGradient>
  </defs>
  <rect width="400" height="400" fill="url(#gwr7dso)"/>
  <g transform="rotate(-26 200 200)" opacity="0.55">
    <circle cx="200" cy="200" r="60"  fill="none" stroke="#fff" stroke-opacity="0.18" stroke-width="2"/>
    <circle cx="200" cy="200" r="100" fill="none" stroke="#fff" stroke-opacity="0.14" stroke-width="2"/>
    <circle cx="200" cy="200" r="140" fill="none" stroke="#fff" stroke-opacity="0.10" stroke-width="2"/>
  </g>
  <circle cx="306.0" cy="200.0" r="10" fill="#fff" opacity="0.45"/><circle cx="99.0" cy="292.6" r="7" fill="#fff" opacity="0.45"/><circle cx="214.6" cy="32.6" r="4" fill="#fff" opacity="0.45"/><circle cx="254.2" cy="270.6" r="11" fill="#fff" opacity="0.45"/><circle cx="81.8" cy="179.2" r="8" fill="#fff" opacity="0.45"/><circle cx="327.4" cy="118.9" r="5" fill="#fff" opacity="0.45"/><circle cx="152.9" cy="375.8" r="12" fill="#fff" opacity="0.45"/><circle cx="152.4" cy="108.6" r="9" fill="#fff" opacity="0.45"/><circle cx="325.9" cy="245.8" r="6" fill="#fff" opacity="0.45"/><circle cx="47.6" cy="263.1" r="13" fill="#fff" opacity="0.45"/><circle cx="236.3" cy="122.1" r="10" fill="#fff" opacity="0.45"/><circle cx="235.2" cy="311.6" r="7" fill="#fff" opacity="0.45"/><circle cx="71.8" cy="126.0" r="4" fill="#fff" opacity="0.45"/><circle cx="374.8" cy="161.3" r="11" fill="#fff" opacity="0.45"/><circle cx="142.6" cy="281.9" r="8" fill="#fff" opacity="0.45"/><circle cx="182.9" cy="70.1" r="5" fill="#fff" opacity="0.45"/><circle cx="324.1" cy="304.1" r="12" fill="#fff" opacity="0.45"/><circle cx="117.1" cy="203.6" r="9" fill="#fff" opacity="0.45"/>
  <rect x="40" y="60" width="320" height="280" rx="14" fill="#0c0c14" opacity="0.78"/>
  <text x="200" y="200" text-anchor="middle" font-family="serif" font-weight="900" font-size="120" fill="#ff2e93">M</text>
  <text x="200" y="260" text-anchor="middle" font-family="Orbitron, sans-serif" font-size="14" letter-spacing="4" fill="#fff">MANGA</text>
  <text x="200" y="300" text-anchor="middle" font-family="sans-serif" font-size="13" fill="#fff" opacity="0.9">BD Hardcover ree3franc Saga</text>
  <text x="20" y="385" font-family="Orbitron, sans-serif" font-size="10" letter-spacing="3" fill="#fff" opacity="0.7">AnimemomentsAnimeofficiel · AM-060</text>
</svg>